<?xml version="1.0" standalone="no"?>
<!DOCTYPE svg PUBLIC "-//W3C//DTD SVG 20010904//EN"
 "http://www.w3.org/TR/2001/REC-SVG-20010904/DTD/svg10.dtd">
<svg version="1.0" xmlns="http://www.w3.org/2000/svg"
 width="288.000000pt" height="288.000000pt" viewBox="0 0 288.000000 288.000000"
 preserveAspectRatio="xMidYMid meet">
<metadata>
Created by potrace 1.14, written by Peter Selinger 2001-2017
</metadata>
<g transform="translate(0.000000,288.000000) scale(0.100000,-0.100000)"
fill="#000000" stroke="none">
<path d="M1166 2795 c-22 -23 -21 -27 25 -81 98 -117 128 -234 99 -373 -11
-47 -49 -133 -62 -139 -5 -2 -8 -8 -8 -13 0 -5 -24 -35 -54 -67 -108 -115
-120 -128 -168 -200 -79 -117 -134 -268 -130 -357 1 -20 1 -20 -14 0 -34 46
-52 172 -47 336 5 172 -10 185 -106 90 -146 -144 -258 -378 -288 -601 -8 -66
-10 -229 -2 -275 4 -22 9 -53 12 -70 20 -130 90 -299 176 -425 67 -98 194
-216 305 -283 87 -52 236 -112 306 -123 14 -2 48 -9 75 -16 57 -13 284 -17
360 -6 28 4 75 14 105 23 30 9 62 17 70 19 21 6 143 59 155 68 6 5 44 30 85
56 176 114 339 333 374 504 3 13 7 32 9 43 20 88 26 241 13 330 -4 33 -23 109
-40 160 -20 65 -79 164 -129 217 -33 35 -61 27 -88 -26 -40 -80 -80 -109 -149
-109 -122 -1 -158 97 -114 313 44 220 38 402 -18 555 -90 246 -277 395 -558
446 -112 20 -176 22 -194 4z"/>
</g>
</svg>
